<svg width="251" height="234" viewBox="0 0 251 234" fill="none" xmlns="http://www.w3.org/2000/svg">
<mask id="path-1-outside-1_5_51" maskUnits="userSpaceOnUse" x="0.711365" y="0.881592" width="250" height="233" fill="black">
<rect fill="white" x="0.711365" y="0.881592" width="250" height="233"/>
<path d="M242.297 8.88159H8.71136V225.48H242.297V8.88159Z"/>
<path d="M36.1579 181.932V204.029C36.1579 205.269 36.1579 206.262 35.1156 206.262C34.3712 206.262 28.7131 205.021 28.7131 199.563V92.0909C28.7131 58.8303 26.7775 46.1778 26.7775 42.4564C26.7775 41.216 27.0752 40.4717 27.6708 40.4717C30.4999 40.4717 38.5403 45.4335 38.5403 50.3953C38.5403 65.7768 36.1579 140.733 36.1579 176.474C65.9537 151.401 75.4831 116.916 78.9077 116.916C80.9922 116.916 82.0346 127.088 82.0346 129.569C82.0346 137.012 71.4629 149.912 57.1523 163.822L73.2497 186.15C82.4812 199.051 85.0125 201.3 91.2661 201.796C90.6705 206.741 86.9481 215.673 83.0768 215.673C79.95 215.673 73.9942 207.734 48.0696 173.249L36.1579 181.932Z"/>
<path d="M142.354 163.326C139.823 145.215 138.185 138.252 133.42 138.252C126.571 138.252 113.766 164.07 107.215 196.338C106.768 199.067 106.47 199.811 105.726 199.811C104.683 199.811 99.472 198.571 99.472 193.609C99.472 188.647 100.961 177.715 100.961 148.688C100.961 130.082 99.7698 125.351 99.7698 122.622C99.7698 121.63 100.068 120.886 100.663 120.886C101.557 120.886 110.193 125.103 110.193 128.577C110.193 132.546 109.299 146.439 108.406 157.372L106.47 182.197H106.768C112.426 161.606 126.273 125.848 140.419 125.848C146.821 125.848 148.31 133.29 150.113 146.456L155.474 186.166C155.771 188.647 156.814 195.346 159.345 195.346C159.792 195.346 160.089 195.594 160.089 196.586C159.94 200.804 152.496 206.262 150.411 206.262C148.773 206.262 148.029 203.037 146.97 196.09L142.354 163.326Z"/>
<path d="M176.766 181.932V204.029C176.766 205.269 176.766 206.262 175.723 206.262C174.979 206.262 169.321 205.021 169.321 199.563V92.0909C169.321 58.8303 167.385 46.1778 167.385 42.4564C167.385 41.216 167.683 40.4717 168.279 40.4717C171.108 40.4717 179.165 45.4335 179.165 50.3953C179.165 65.7768 176.782 140.733 176.782 176.474C206.578 151.401 216.107 116.916 219.532 116.916C221.617 116.916 222.659 127.088 222.659 129.569C222.659 137.012 212.087 149.912 197.777 163.822L213.874 186.15C223.106 199.051 225.637 201.3 231.907 201.796C231.311 206.741 227.589 215.673 223.718 215.673C220.591 215.673 214.635 207.734 188.711 173.249L176.766 181.932Z"/>
<path d="M118.68 53.4055C114.461 44.16 108.191 23.585 106.007 20.4756C103.823 17.3663 100.779 15.1004 100.382 17.6309C100.001 20.1614 100.117 29.0761 103.79 32.9794C107.761 37.1969 117.637 51.3546 118.101 53.9678L118.68 53.4055Z"/>
<path d="M118.349 59.5415L123.031 57.2756C122.683 56.4817 122.27 55.7044 121.74 54.9767C121.227 54.2324 120.648 53.5708 120.02 52.9754L116.297 56.6141L118.349 59.5415Z"/>
<path d="M117.555 54.712C117.472 54.3151 117.273 53.8355 117.273 53.8355C113.369 44.772 99.4058 27.8522 94.4426 26.0991C90.4058 24.6767 90.0088 26.2148 93.483 31.1766C95.2367 33.674 98.0492 38.8178 99.8194 40.8521C101.59 42.903 112.79 52.8927 114.395 53.9182C115.602 54.679 116.545 55.0594 117.075 55.1917L117.555 54.712Z"/>
<path d="M127.597 49.1218C125.678 49.1218 122.931 49.7999 120.317 52.4462C121.029 53.0912 121.658 53.8354 122.237 54.6459C122.816 55.4728 123.295 56.3163 123.659 57.2094C127.034 55.6547 128.623 53.3062 129.268 51.5034L127.597 49.1218Z"/>
<path d="M129.466 50.8915C129.648 50.2961 129.764 49.7337 129.913 49.2706C129.417 49.2541 128.854 49.1879 128.225 49.1548L129.466 50.8915Z"/>
<path d="M128.192 48.1459C128.606 48.7414 129.367 48.9068 129.896 48.5429C130.426 48.1625 130.36 47.5175 129.946 46.9055C129.533 46.3266 128.937 46.0124 128.408 46.3928C127.862 46.7732 127.779 47.5505 128.192 48.1459Z"/>
<path d="M130.376 51.2719C129.963 50.6764 130.062 49.8991 130.591 49.5187C131.121 49.1548 131.716 49.4525 132.13 50.0314C132.544 50.6268 132.626 51.2884 132.097 51.6523C131.551 52.0492 130.79 51.8673 130.376 51.2719Z"/>
<path d="M122.187 58.4168C129.433 65.5287 146.622 78.4625 148.806 81.5719C150.99 84.6813 152.065 88.3199 149.567 87.8237C147.069 87.311 138.731 84.1686 136.299 79.3722C133.685 74.1954 123.742 60.0873 121.459 58.7642L122.187 58.4168Z"/>
<path d="M120.566 59.0287C120.913 59.2603 121.31 59.5911 121.31 59.5911C128.507 66.3722 139.641 85.2436 139.591 90.5197C139.558 94.8033 137.97 94.6545 134.496 89.6927C132.742 87.1953 128.871 82.7958 127.547 80.4307C126.24 78.0821 120.648 64.1395 120.251 62.2705C119.954 60.8647 119.92 59.8557 119.97 59.3099L120.566 59.0287Z"/>
<path d="M117.753 59.7069L115.95 57.1268C115.718 57.8049 112.84 60.4677 111.797 61.2451L112.509 62.254C112.492 62.254 116.413 61.3278 117.753 59.7069Z"/>
<path d="M112.062 62.6013C111.665 63.0147 107.562 65.4295 106.669 66.3888L105.941 65.3633C106.834 64.4206 110.954 62.0059 111.334 61.5759L112.062 62.6013Z"/>
<path d="M106.222 66.6865C105.841 67.1 101.722 69.5147 100.829 70.474L100.101 69.4486C100.994 68.4893 105.113 66.0746 105.494 65.6611L106.222 66.6865Z"/>
<path d="M100.382 70.7717C100.001 71.1852 95.8819 73.5999 94.9885 74.5427L94.2606 73.5172C95.154 72.5745 99.2735 70.1432 99.654 69.7297L100.382 70.7717Z"/>
<path d="M94.5584 74.8569C94.1779 75.2704 90.0584 77.6852 89.165 78.6445L88.4371 77.619C89.3305 76.6763 93.45 74.2615 93.8305 73.8315L94.5584 74.8569Z"/>
<path d="M88.7184 78.9421C88.3379 79.3556 84.2184 81.7704 83.325 82.7297L82.5971 81.7042C83.4904 80.7615 87.6099 78.3302 87.9904 77.9167L88.7184 78.9421Z"/>
<path d="M82.8783 83.0273C82.4978 83.4408 78.3783 85.8721 77.4849 86.8149L76.757 85.7894C77.6504 84.8467 81.7699 82.4319 82.1504 82.0019L82.8783 83.0273Z"/>
<path d="M77.0383 87.1291C76.6578 87.5426 72.3894 91.0986 71.9096 90.9497C71.4299 90.8009 71.0328 91.0158 70.9335 89.8746C70.8343 88.7334 75.9464 86.5171 76.3269 86.1036L77.0383 87.1291Z"/>
</mask>
<path d="M36.1579 181.932V204.029C36.1579 205.269 36.1579 206.262 35.1156 206.262C34.3712 206.262 28.7131 205.021 28.7131 199.563V92.0909C28.7131 58.8303 26.7775 46.1778 26.7775 42.4564C26.7775 41.216 27.0752 40.4717 27.6708 40.4717C30.4999 40.4717 38.5403 45.4335 38.5403 50.3953C38.5403 65.7768 36.1579 140.733 36.1579 176.474C65.9537 151.401 75.4831 116.916 78.9077 116.916C80.9922 116.916 82.0346 127.088 82.0346 129.569C82.0346 137.012 71.4629 149.912 57.1523 163.822L73.2497 186.15C82.4812 199.051 85.0125 201.3 91.2661 201.796C90.6705 206.741 86.9481 215.673 83.0768 215.673C79.95 215.673 73.9942 207.734 48.0696 173.249L36.1579 181.932Z" fill="currentColor"/>
<path d="M142.354 163.326C139.823 145.215 138.185 138.252 133.42 138.252C126.571 138.252 113.766 164.07 107.215 196.338C106.768 199.067 106.47 199.811 105.726 199.811C104.683 199.811 99.472 198.571 99.472 193.609C99.472 188.647 100.961 177.715 100.961 148.688C100.961 130.082 99.7698 125.351 99.7698 122.622C99.7698 121.63 100.068 120.886 100.663 120.886C101.557 120.886 110.193 125.103 110.193 128.577C110.193 132.546 109.299 146.439 108.406 157.372L106.47 182.197H106.768C112.426 161.606 126.273 125.848 140.419 125.848C146.821 125.848 148.31 133.29 150.113 146.456L155.474 186.166C155.771 188.647 156.814 195.346 159.345 195.346C159.792 195.346 160.089 195.594 160.089 196.586C159.94 200.804 152.496 206.262 150.411 206.262C148.773 206.262 148.029 203.037 146.97 196.09L142.354 163.326Z" fill="currentColor"/>
<path d="M176.766 181.932V204.029C176.766 205.269 176.766 206.262 175.723 206.262C174.979 206.262 169.321 205.021 169.321 199.563V92.0909C169.321 58.8303 167.385 46.1778 167.385 42.4564C167.385 41.216 167.683 40.4717 168.279 40.4717C171.108 40.4717 179.165 45.4335 179.165 50.3953C179.165 65.7768 176.782 140.733 176.782 176.474C206.578 151.401 216.107 116.916 219.532 116.916C221.617 116.916 222.659 127.088 222.659 129.569C222.659 137.012 212.087 149.912 197.777 163.822L213.874 186.15C223.106 199.051 225.637 201.3 231.907 201.796C231.311 206.741 227.589 215.673 223.718 215.673C220.591 215.673 214.635 207.734 188.711 173.249L176.766 181.932Z" fill="currentColor"/>
<path d="M118.68 53.4055C114.461 44.16 108.191 23.585 106.007 20.4756C103.823 17.3663 100.779 15.1004 100.382 17.6309C100.001 20.1614 100.117 29.0761 103.79 32.9794C107.761 37.1969 117.637 51.3546 118.101 53.9678L118.68 53.4055Z" fill="#EA7114"/>
<path d="M118.349 59.5415L123.031 57.2756C122.683 56.4817 122.27 55.7044 121.74 54.9767C121.227 54.2324 120.648 53.5708 120.02 52.9754L116.297 56.6141L118.349 59.5415Z" fill="#EA7114"/>
<path d="M117.555 54.712C117.472 54.3151 117.273 53.8355 117.273 53.8355C113.369 44.772 99.4058 27.8522 94.4426 26.0991C90.4058 24.6767 90.0088 26.2148 93.483 31.1766C95.2367 33.674 98.0492 38.8178 99.8194 40.8521C101.59 42.903 112.79 52.8927 114.395 53.9182C115.602 54.679 116.545 55.0594 117.075 55.1917L117.555 54.712Z" fill="#EA7114"/>
<path d="M127.597 49.1218C125.678 49.1218 122.931 49.7999 120.317 52.4462C121.029 53.0912 121.658 53.8354 122.237 54.6459C122.816 55.4728 123.295 56.3163 123.659 57.2094C127.034 55.6547 128.623 53.3062 129.268 51.5034L127.597 49.1218Z" fill="#EA7114"/>
<path d="M129.466 50.8915C129.648 50.2961 129.764 49.7337 129.913 49.2706C129.417 49.2541 128.854 49.1879 128.225 49.1548L129.466 50.8915Z" fill="#EA7114"/>
<path d="M128.192 48.1459C128.606 48.7414 129.367 48.9068 129.896 48.5429C130.426 48.1625 130.36 47.5175 129.946 46.9055C129.533 46.3266 128.937 46.0124 128.408 46.3928C127.862 46.7732 127.779 47.5505 128.192 48.1459Z" fill="#EA7114"/>
<path d="M130.376 51.2719C129.963 50.6764 130.062 49.8991 130.591 49.5187C131.121 49.1548 131.716 49.4525 132.13 50.0314C132.544 50.6268 132.626 51.2884 132.097 51.6523C131.551 52.0492 130.79 51.8673 130.376 51.2719Z" fill="#EA7114"/>
<path d="M122.187 58.4168C129.433 65.5287 146.622 78.4625 148.806 81.5719C150.99 84.6813 152.065 88.3199 149.567 87.8237C147.069 87.311 138.731 84.1686 136.299 79.3722C133.685 74.1954 123.742 60.0873 121.459 58.7642L122.187 58.4168Z" fill="#EA7114"/>
<path d="M120.566 59.0287C120.913 59.2603 121.31 59.5911 121.31 59.5911C128.507 66.3722 139.641 85.2436 139.591 90.5197C139.558 94.8033 137.97 94.6545 134.496 89.6927C132.742 87.1953 128.871 82.7958 127.547 80.4307C126.24 78.0821 120.648 64.1395 120.251 62.2705C119.954 60.8647 119.92 59.8557 119.97 59.3099L120.566 59.0287Z" fill="#EA7114"/>
<path d="M117.753 59.7069L115.95 57.1268C115.718 57.8049 112.84 60.4677 111.797 61.2451L112.509 62.254C112.492 62.254 116.413 61.3278 117.753 59.7069Z" fill="#EA7114"/>
<path d="M112.062 62.6013C111.665 63.0147 107.562 65.4295 106.669 66.3888L105.941 65.3633C106.834 64.4206 110.954 62.0059 111.334 61.5759L112.062 62.6013Z" fill="#EA7114"/>
<path d="M106.222 66.6865C105.841 67.1 101.722 69.5147 100.829 70.474L100.101 69.4486C100.994 68.4893 105.113 66.0746 105.494 65.6611L106.222 66.6865Z" fill="#EA7114"/>
<path d="M100.382 70.7717C100.001 71.1852 95.8819 73.5999 94.9885 74.5427L94.2606 73.5172C95.154 72.5745 99.2735 70.1432 99.654 69.7297L100.382 70.7717Z" fill="#EA7114"/>
<path d="M94.5584 74.8569C94.1779 75.2704 90.0584 77.6852 89.165 78.6445L88.4371 77.619C89.3305 76.6763 93.45 74.2615 93.8305 73.8315L94.5584 74.8569Z" fill="#EA7114"/>
<path d="M88.7184 78.9421C88.3379 79.3556 84.2184 81.7704 83.325 82.7297L82.5971 81.7042C83.4904 80.7615 87.6099 78.3302 87.9904 77.9167L88.7184 78.9421Z" fill="#EA7114"/>
<path d="M82.8783 83.0273C82.4978 83.4408 78.3783 85.8721 77.4849 86.8149L76.757 85.7894C77.6504 84.8467 81.7699 82.4319 82.1504 82.0019L82.8783 83.0273Z" fill="#EA7114"/>
<path d="M77.0383 87.1291C76.6578 87.5426 72.3894 91.0986 71.9096 90.9497C71.4299 90.8009 71.0328 91.0158 70.9335 89.8746C70.8343 88.7334 75.9464 86.5171 76.3269 86.1036L77.0383 87.1291Z" fill="#EA7114"/>
<path d="M8.71136 8.88159V0.881592H0.711365V8.88159H8.71136ZM242.297 8.88159H250.297V0.881592H242.297V8.88159ZM242.297 225.48V233.48H250.297V225.48H242.297ZM8.71136 225.48H0.711365V233.48H8.71136V225.48ZM36.1579 181.932L31.4454 175.468L28.1579 177.864V181.932H36.1579ZM36.1579 176.474H28.1579V193.662L41.3089 182.596L36.1579 176.474ZM57.1523 163.822L51.5764 158.085L46.6243 162.899L50.6629 168.5L57.1523 163.822ZM73.2497 186.15L79.7555 181.494L79.7473 181.483L79.739 181.471L73.2497 186.15ZM91.2661 201.796L99.2087 202.753L100.205 194.48L91.8988 193.821L91.2661 201.796ZM48.0696 173.249L54.4642 168.442L49.7273 162.141L43.3571 166.785L48.0696 173.249ZM142.354 163.326L134.431 164.433L134.432 164.442L142.354 163.326ZM107.215 196.338L99.3746 194.746L99.3443 194.896L99.3197 195.046L107.215 196.338ZM108.406 157.372L100.432 156.72L100.431 156.735L100.43 156.75L108.406 157.372ZM106.47 182.197L98.4943 181.575L97.822 190.197H106.47V182.197ZM106.768 182.197V190.197H112.866L114.482 184.317L106.768 182.197ZM150.113 146.456L158.041 145.385L158.04 145.378L158.039 145.37L150.113 146.456ZM155.474 186.166L163.417 185.213L163.41 185.155L163.402 185.096L155.474 186.166ZM160.089 196.586L168.084 196.869L168.089 196.727V196.586H160.089ZM146.97 196.09L139.048 197.206L139.054 197.251L139.061 197.295L146.97 196.09ZM176.766 181.932L172.062 175.462L168.766 177.858V181.932H176.766ZM176.782 176.474H168.782V193.662L181.933 182.596L176.782 176.474ZM197.777 163.822L192.201 158.085L187.249 162.899L191.287 168.5L197.777 163.822ZM213.874 186.15L220.38 181.494L220.372 181.483L220.363 181.471L213.874 186.15ZM231.907 201.796L239.85 202.753L240.846 194.479L232.538 193.821L231.907 201.796ZM188.711 173.249L195.105 168.442L190.374 162.149L184.007 166.778L188.711 173.249ZM118.68 53.4055L124.253 59.1447L128.299 55.2155L125.958 50.0844L118.68 53.4055ZM100.382 17.6309L92.4786 16.3908L92.4746 16.4161L92.4708 16.4413L100.382 17.6309ZM103.79 32.9794L97.9637 38.4616L97.9651 38.4631L103.79 32.9794ZM118.101 53.9678L110.223 55.3641L112.855 70.2126L123.674 59.707L118.101 53.9678ZM118.349 59.5415L111.797 64.1326L115.705 69.7087L121.834 66.7425L118.349 59.5415ZM123.031 57.2756L126.516 64.4767L133.447 61.1224L130.36 54.0683L123.031 57.2756ZM121.74 54.9767L115.153 59.516L115.211 59.6002L115.271 59.6829L121.74 54.9767ZM120.02 52.9754L125.521 47.167L119.932 41.8739L114.428 47.2546L120.02 52.9754ZM116.297 56.6141L110.705 50.8932L105.847 55.6419L109.746 61.2052L116.297 56.6141ZM117.555 54.712L123.211 60.3696L126.268 57.3127L125.386 53.08L117.555 54.712ZM117.273 53.8355L124.665 50.7753L124.643 50.7227L124.621 50.6705L117.273 53.8355ZM94.4426 26.0991L97.1071 18.5558L97.1012 18.5538L94.4426 26.0991ZM93.483 31.1766L86.9298 35.7652L86.9359 35.7739L93.483 31.1766ZM99.8194 40.8521L105.875 35.6248L105.865 35.6127L105.854 35.6006L99.8194 40.8521ZM114.395 53.9182L110.087 60.6594L110.109 60.6733L110.131 60.687L114.395 53.9182ZM117.075 55.1917L115.135 62.953L119.528 64.051L122.731 60.8492L117.075 55.1917ZM127.597 49.1218L134.146 44.5271L131.757 41.1218H127.597V49.1218ZM120.317 52.4462L114.626 46.8242L108.758 52.7643L114.944 58.3727L120.317 52.4462ZM122.237 54.6459L128.79 50.0573L128.768 50.0261L128.746 49.9951L122.237 54.6459ZM123.659 57.2094L116.251 60.2285L119.408 67.9758L127.007 64.4755L123.659 57.2094ZM129.268 51.5034L136.8 54.1992L138.196 50.2995L135.817 46.9088L129.268 51.5034ZM129.466 50.8915L122.957 55.5423L132.379 68.7296L137.117 53.2299L129.466 50.8915ZM129.913 49.2706L137.529 51.7194L140.774 41.6281L130.179 41.2751L129.913 49.2706ZM128.225 49.1548L128.646 41.1659L112.062 40.2933L121.716 53.8057L128.225 49.1548ZM129.896 48.5429L134.428 55.1359L134.497 55.0885L134.565 55.0397L129.896 48.5429ZM129.946 46.9055L136.574 42.4258L136.516 42.3395L136.455 42.2547L129.946 46.9055ZM128.408 46.3928L132.981 52.9566L133.029 52.9234L133.076 52.8895L128.408 46.3928ZM130.591 49.5187L126.06 42.9257L125.991 42.9731L125.923 43.0219L130.591 49.5187ZM132.13 50.0314L138.7 45.4673L138.67 45.4237L138.639 45.3806L132.13 50.0314ZM132.097 51.6523L127.566 45.0593L127.478 45.1194L127.392 45.1817L132.097 51.6523ZM122.187 58.4168L127.791 52.7073L123.795 48.7855L118.742 51.1967L122.187 58.4168ZM149.567 87.8237L147.959 95.6604L147.984 95.6655L148.009 95.6705L149.567 87.8237ZM136.299 79.3722L129.158 82.9781L129.164 82.99L136.299 79.3722ZM121.459 58.7642L118.014 51.544L104.32 58.078L117.448 65.6858L121.459 58.7642ZM120.566 59.0287L125.002 52.3718L121.24 49.8639L117.15 51.7944L120.566 59.0287ZM121.31 59.5911L126.796 53.7687L126.619 53.6013L126.431 53.4451L121.31 59.5911ZM139.591 90.5197L131.592 90.4444L131.592 90.4579L139.591 90.5197ZM134.496 89.6927L141.049 85.1041L141.043 85.0954L134.496 89.6927ZM127.547 80.4307L120.557 84.3208L120.561 84.3291L120.566 84.3374L127.547 80.4307ZM120.251 62.2705L112.425 63.9283L112.426 63.933L120.251 62.2705ZM119.97 59.3099L116.555 52.0756L112.417 54.0289L112.003 58.5854L119.97 59.3099ZM117.753 59.7069L123.919 64.8045L127.797 60.1132L124.31 55.124L117.753 59.7069ZM115.95 57.1268L122.507 52.5438L113.475 39.6213L108.379 54.541L115.95 57.1268ZM111.797 61.2451L107.014 54.8322L100.77 59.4891L105.259 65.8551L111.797 61.2451ZM112.509 62.254V70.254H127.938L119.047 57.6439L112.509 62.254ZM112.062 62.6013L117.832 68.1423L122.417 63.3678L118.585 57.9702L112.062 62.6013ZM106.669 66.3888L100.145 71.0194L105.83 79.028L112.523 71.841L106.669 66.3888ZM105.941 65.3633L100.134 59.8606L95.6116 64.6327L99.4171 69.994L105.941 65.3633ZM111.334 61.5759L117.857 56.9448L112.022 48.7257L105.343 56.2744L111.334 61.5759ZM106.222 66.6865L112.109 72.1038L116.495 67.3375L112.745 62.0557L106.222 66.6865ZM100.829 70.474L94.3053 75.105L99.9901 83.1128L106.683 75.9262L100.829 70.474ZM100.101 69.4486L94.2462 63.9964L89.8048 68.7656L93.5773 74.0796L100.101 69.4486ZM105.494 65.6611L112.017 61.0302L106.298 52.9733L99.6073 60.2438L105.494 65.6611ZM100.382 70.7717L106.269 76.189L110.621 71.4593L106.94 66.1902L100.382 70.7717ZM94.9885 74.5427L88.4651 79.1735L94.0997 87.111L100.795 80.0455L94.9885 74.5427ZM94.2606 73.5172L88.4538 68.0144L83.9313 72.7868L87.7371 78.148L94.2606 73.5172ZM99.654 69.7297L106.212 65.1482L100.51 56.9858L93.7673 64.3124L99.654 69.7297ZM94.5584 74.8569L100.445 80.2742L104.831 75.508L101.082 70.2261L94.5584 74.8569ZM89.165 78.6445L82.6416 83.2753L88.3263 91.2834L95.0194 84.0967L89.165 78.6445ZM88.4371 77.619L82.6303 72.1162L78.1078 76.8886L81.9136 82.2499L88.4371 77.619ZM93.8305 73.8315L100.354 69.2006L94.5191 60.9811L87.8393 68.53L93.8305 73.8315ZM88.7184 78.9421L94.605 84.3594L98.9913 79.5932L95.2418 74.3113L88.7184 78.9421ZM83.325 82.7297L76.8016 87.3605L82.4863 95.3686L89.1794 88.1819L83.325 82.7297ZM82.5971 81.7042L76.7902 76.2014L72.2678 80.9738L76.0736 86.3351L82.5971 81.7042ZM87.9904 77.9167L94.5139 73.2858L88.7945 65.2289L82.1037 72.4994L87.9904 77.9167ZM82.8783 83.0273L88.765 88.4446L93.1512 83.6784L89.4018 78.3965L82.8783 83.0273ZM77.4849 86.8149L70.9615 91.4457L76.5962 99.3832L83.2918 92.3177L77.4849 86.8149ZM76.757 85.7894L70.9502 80.2866L66.4277 85.059L70.2336 90.4203L76.757 85.7894ZM82.1504 82.0019L88.6738 77.3711L82.839 69.1515L76.1592 76.7004L82.1504 82.0019ZM77.0383 87.1291L82.925 92.5464L87.2631 87.8325L83.6113 82.5689L77.0383 87.1291ZM76.3269 86.1036L82.8999 81.5434L77.2052 73.3352L70.4402 80.6863L76.3269 86.1036ZM8.71136 16.8816H242.297V0.881592H8.71136V16.8816ZM234.297 8.88159V225.48H250.297V8.88159H234.297ZM242.297 217.48H8.71136V233.48H242.297V217.48ZM16.7114 225.48V8.88159H0.711365V225.48H16.7114ZM28.1579 181.932V204.029H44.1579V181.932H28.1579ZM28.1579 204.029C28.1579 204.4 28.1551 204.437 28.1564 204.415C28.1585 204.381 28.1671 204.251 28.1966 204.06C28.2255 203.873 28.2858 203.551 28.4153 203.151C28.6728 202.353 29.3181 200.914 30.8494 199.74C32.4287 198.528 34.0809 198.262 35.1156 198.262V214.262C36.6715 214.262 38.7146 213.871 40.587 212.435C42.4115 211.036 43.2521 209.271 43.64 208.071C44.2477 206.19 44.1579 204.143 44.1579 204.029H28.1579ZM35.1156 198.262C35.5392 198.262 35.8416 198.299 35.9253 198.31C36.0531 198.326 36.1376 198.342 36.1753 198.349C36.2512 198.364 36.2599 198.37 36.2212 198.358C36.1863 198.346 36.1409 198.33 36.0962 198.309C36.0512 198.289 36.0309 198.275 36.0338 198.277C36.0371 198.279 36.0833 198.31 36.1544 198.38C36.2281 198.452 36.3288 198.568 36.4283 198.73C36.5306 198.897 36.61 199.078 36.6599 199.256C36.7097 199.433 36.7131 199.546 36.7131 199.563H20.7131C20.7131 205.625 24.0751 209.561 27.2366 211.642C28.7306 212.625 30.2079 213.236 31.3811 213.608C32.3197 213.906 33.7235 214.262 35.1156 214.262V198.262ZM36.7131 199.563V92.0909H20.7131V199.563H36.7131ZM36.7131 92.0909C36.7131 75.2994 36.2243 63.6555 35.7299 55.7002C35.4829 51.7263 35.2357 48.6924 35.0535 46.4554C34.8566 44.0366 34.7775 42.9733 34.7775 42.4564H18.7775C18.7775 43.8002 18.9403 45.714 19.1063 47.7536C19.2871 49.9749 19.5238 52.8807 19.7607 56.6927C20.2341 64.3091 20.7131 75.6218 20.7131 92.0909H36.7131ZM34.7775 42.4564C34.7775 42.4598 34.7774 42.4917 34.7736 42.5491C34.7698 42.6056 34.7614 42.7008 34.742 42.8283C34.7086 43.0475 34.6144 43.5539 34.3329 44.199C34.0567 44.8317 33.4634 45.9075 32.2715 46.8591C30.9608 47.9057 29.3296 48.4717 27.6708 48.4717V32.4717C23.0798 32.4717 20.5761 35.7198 19.6687 37.7988C18.8728 39.6224 18.7775 41.4063 18.7775 42.4564H34.7775ZM27.6708 48.4717C27.2827 48.4717 27.007 48.4311 26.8782 48.4085C26.8062 48.3959 26.7542 48.3843 26.7236 48.3769C26.7078 48.3732 26.6962 48.3701 26.6888 48.3681C26.6813 48.3661 26.6775 48.365 26.6774 48.365C26.6772 48.3649 26.6803 48.3658 26.6866 48.3678C26.6928 48.3698 26.7019 48.3728 26.7138 48.377C26.7379 48.3853 26.7713 48.3974 26.814 48.4141C26.9007 48.4479 27.0142 48.4961 27.1524 48.5612C27.7415 48.8388 28.4976 49.2917 29.2182 49.8589C29.9572 50.4406 30.4231 50.9568 30.6434 51.2778C30.89 51.6371 30.5403 51.3112 30.5403 50.3953H46.5403C46.5403 46.9984 45.1855 44.1916 43.8361 42.2251C42.4604 40.2202 40.7394 38.5657 39.1147 37.2867C37.4715 35.9932 35.6871 34.8956 33.9729 34.0878C32.5269 33.4064 30.186 32.4717 27.6708 32.4717V48.4717ZM30.5403 50.3953C30.5403 57.9599 29.9495 80.3711 29.3513 105.61C28.7563 130.718 28.1579 158.491 28.1579 176.474H44.1579C44.1579 158.716 44.7507 131.141 45.3468 105.989C45.9398 80.9698 46.5403 58.2122 46.5403 50.3953H30.5403ZM41.3089 182.596C57.2433 169.186 67.6365 153.372 74.4142 141.18C77.7789 135.127 80.358 129.762 82.1064 126.318C83.0412 124.477 83.6323 123.398 84.0117 122.815C84.2158 122.502 84.1331 122.689 83.7769 123.036C83.6659 123.145 81.9452 124.916 78.9077 124.916V108.916C75.4422 108.916 73.2456 110.958 72.6043 111.583C71.7177 112.448 71.05 113.4 70.6076 114.079C69.694 115.481 68.746 117.291 67.8402 119.074C65.9076 122.88 63.6 127.703 60.4298 133.406C54.1377 144.724 44.8683 158.689 31.0069 170.353L41.3089 182.596ZM78.9077 124.916C75.6444 124.916 73.8386 122.908 73.411 122.378C72.9051 121.75 72.7638 121.303 72.8322 121.476C72.9369 121.742 73.1526 122.488 73.383 123.75C73.5962 124.917 73.7647 126.2 73.8788 127.342C73.9986 128.539 74.0346 129.337 74.0346 129.569H90.0346C90.0346 127.751 89.7114 124.098 89.1226 120.875C88.8319 119.283 88.3962 117.332 87.7191 115.613C87.3967 114.794 86.832 113.533 85.8701 112.339C84.9865 111.242 82.6921 108.916 78.9077 108.916V124.916ZM74.0346 129.569C74.0346 129.563 74.0349 129.625 74.0124 129.766C73.99 129.906 73.9474 130.108 73.8694 130.377C73.7104 130.925 73.4318 131.655 72.9783 132.578C72.0609 134.446 70.6047 136.751 68.5657 139.463C64.4895 144.884 58.599 151.259 51.5764 158.085L62.7282 169.559C70.0162 162.475 76.5668 155.445 81.3541 149.078C83.7468 145.896 85.8279 142.71 87.3399 139.631C88.8013 136.656 90.0346 133.177 90.0346 129.569H74.0346ZM50.6629 168.5L66.7603 190.828L79.739 181.471L63.6417 159.143L50.6629 168.5ZM66.7438 190.805C71.2429 197.093 74.7181 201.694 78.1205 204.658C82.2438 208.249 86.1805 209.418 90.6333 209.771L91.8988 193.821C90.098 193.678 89.6423 193.475 88.6287 192.592C86.8943 191.081 84.488 188.108 79.7555 181.494L66.7438 190.805ZM83.3235 200.84C83.1548 202.24 82.4058 204.785 81.3087 206.885C80.7678 207.921 80.3522 208.438 80.2121 208.58C79.9424 208.853 80.9219 207.673 83.0768 207.673V223.673C87.1675 223.673 90.064 221.375 91.5996 219.82C93.2649 218.132 94.543 216.108 95.491 214.292C97.3719 210.691 98.7818 206.297 99.2087 202.753L83.3235 200.84ZM83.0768 207.673C85.5733 207.673 86.6075 209.156 85.3321 207.99C84.3938 207.132 82.8582 205.455 80.3286 202.345C75.3317 196.201 67.4843 185.761 54.4642 168.442L41.6751 178.057C54.5795 195.222 62.6723 205.994 67.9161 212.441C70.5069 215.626 72.6669 218.089 74.5348 219.797C76.0657 221.197 79.0169 223.673 83.0768 223.673V207.673ZM43.3571 166.785L31.4454 175.468L40.8704 188.397L52.7822 179.714L43.3571 166.785ZM150.277 162.218C149.036 153.337 147.912 146.31 146.322 141.49C145.526 139.077 144.356 136.372 142.351 134.199C140.029 131.682 136.926 130.252 133.42 130.252V146.252C132.297 146.252 131.186 145.693 130.59 145.047C130.311 144.745 130.603 144.913 131.128 146.504C132.18 149.694 133.141 155.204 134.431 164.433L150.277 162.218ZM133.42 130.252C130.1 130.252 127.465 131.765 125.776 133.04C123.992 134.387 122.413 136.111 121.034 137.89C118.261 141.469 115.522 146.294 112.952 151.822C107.777 162.952 102.758 178.082 99.3746 194.746L115.055 197.93C118.223 182.326 122.882 168.413 127.46 158.567C129.766 153.608 131.922 149.96 133.681 147.69C134.568 146.545 135.164 146 135.417 145.809C135.765 145.546 135.029 146.252 133.42 146.252V130.252ZM99.3197 195.046C99.2175 195.67 99.145 196.047 99.0945 196.271C99.0342 196.538 99.0556 196.355 99.2156 195.977C99.3606 195.635 99.8898 194.47 101.192 193.422C102.721 192.19 104.432 191.811 105.726 191.811V207.811C107.392 207.811 109.418 207.34 111.227 205.883C112.808 204.61 113.58 203.088 113.948 202.219C114.607 200.663 114.912 198.836 115.11 197.63L99.3197 195.046ZM105.726 191.811C106.026 191.811 106.243 191.832 106.342 191.842C106.457 191.855 106.535 191.868 106.575 191.875C106.653 191.889 106.67 191.896 106.644 191.888C106.571 191.866 106.533 191.841 106.564 191.861C106.604 191.887 106.855 192.057 107.101 192.455C107.386 192.915 107.472 193.368 107.472 193.609H91.472C91.472 199.461 94.7637 203.276 97.852 205.281C99.3159 206.231 100.777 206.826 101.974 207.192C103.025 207.512 104.383 207.811 105.726 207.811V191.811ZM107.472 193.609C107.472 191.389 107.804 188.117 108.205 180.599C108.585 173.479 108.961 163.347 108.961 148.688H92.961C92.961 163.057 92.5927 172.904 92.2278 179.747C91.8842 186.192 91.472 190.867 91.472 193.609H107.472ZM108.961 148.688C108.961 139.208 108.657 133.166 108.342 129.084C108.184 127.053 108.026 125.532 107.916 124.435C107.796 123.227 107.77 122.832 107.77 122.622H91.7698C91.7698 123.777 91.8929 124.997 91.9955 126.025C92.1093 127.164 92.2485 128.5 92.3892 130.318C92.669 133.936 92.961 139.562 92.961 148.688H108.961ZM107.77 122.622C107.77 122.747 107.777 123.652 107.205 124.845C106.895 125.491 106.278 126.497 105.128 127.376C103.877 128.331 102.309 128.886 100.663 128.886V112.886C96.2308 112.886 93.7327 115.938 92.7813 117.919C91.911 119.732 91.7698 121.505 91.7698 122.622H107.77ZM100.663 128.886C100.299 128.886 99.9992 128.86 99.7933 128.836C99.5808 128.812 99.4045 128.782 99.2752 128.757C99.0241 128.71 98.8374 128.66 98.7422 128.633C98.5542 128.579 98.4582 128.541 98.4897 128.553C98.5397 128.572 98.7341 128.651 99.0625 128.809C99.7118 129.121 100.564 129.587 101.377 130.119C101.777 130.381 102.129 130.635 102.42 130.868C102.719 131.106 102.895 131.276 102.976 131.364C103.074 131.468 102.941 131.352 102.755 131.003C102.57 130.654 102.193 129.806 102.193 128.577H118.193C118.193 124.575 115.874 121.735 114.682 120.456C113.248 118.917 111.557 117.661 110.149 116.738C108.691 115.782 107.217 114.976 105.996 114.389C105.389 114.097 104.762 113.82 104.169 113.595C103.878 113.485 103.505 113.352 103.093 113.235C102.886 113.177 101.897 112.886 100.663 112.886V128.886ZM102.193 128.577C102.193 132.157 101.332 145.708 100.432 156.72L116.379 158.023C117.266 147.17 118.193 132.935 118.193 128.577H102.193ZM100.43 156.75L98.4943 181.575L114.446 182.819L116.382 157.993L100.43 156.75ZM106.47 190.197H106.768V174.197H106.47V190.197ZM114.482 184.317C117.217 174.362 121.916 160.836 127.521 149.967C130.339 144.502 133.192 140.095 135.88 137.169C138.76 134.034 140.28 133.848 140.419 133.848V117.848C133.484 117.848 127.969 122.131 124.098 126.344C120.034 130.766 116.419 136.586 113.3 142.634C107.031 154.792 101.977 169.44 99.0538 180.077L114.482 184.317ZM140.419 133.848C140.435 133.848 140.255 133.848 139.964 133.747C139.661 133.641 139.4 133.481 139.214 133.324C138.903 133.061 139.122 133.079 139.559 134.177C140.524 136.597 141.25 140.7 142.187 147.541L158.039 145.37C157.173 139.046 156.253 132.845 154.422 128.252C153.462 125.844 151.995 123.179 149.547 121.108C146.905 118.873 143.733 117.848 140.419 117.848V133.848ZM142.185 147.526L147.545 187.237L163.402 185.096L158.041 145.385L142.185 147.526ZM147.531 187.12C147.695 188.489 148.097 191.361 148.929 194.052C149.329 195.342 149.991 197.148 151.121 198.792C152.148 200.285 154.784 203.346 159.345 203.346V187.346C160.908 187.346 162.176 187.892 163.02 188.477C163.787 189.009 164.182 189.547 164.307 189.729C164.52 190.039 164.429 190.015 164.214 189.321C163.818 188.042 163.55 186.324 163.417 185.213L147.531 187.12ZM159.345 203.346C158.754 203.346 157.706 203.269 156.506 202.757C155.207 202.201 154.111 201.296 153.331 200.182C152.615 199.159 152.332 198.202 152.213 197.65C152.095 197.096 152.089 196.702 152.089 196.586H168.089C168.089 195.659 168.023 193.27 166.438 191.006C164.324 187.986 161.196 187.346 159.345 187.346V203.346ZM152.094 196.304C152.116 195.7 152.255 195.325 152.292 195.233C152.331 195.136 152.323 195.186 152.193 195.378C151.917 195.783 151.404 196.37 150.678 197.011C149.965 197.641 149.259 198.138 148.761 198.427C148.509 198.574 148.426 198.6 148.51 198.567C148.556 198.549 148.718 198.487 148.976 198.425C149.209 198.368 149.717 198.262 150.411 198.262V214.262C152.152 214.262 153.594 213.758 154.329 213.471C155.22 213.123 156.061 212.69 156.803 212.259C158.292 211.393 159.846 210.262 161.274 209C162.689 207.749 164.195 206.181 165.422 204.377C166.568 202.692 167.971 200.073 168.084 196.869L152.094 196.304ZM150.411 198.262C151.596 198.262 152.766 198.573 153.787 199.153C154.747 199.698 155.346 200.348 155.668 200.766C156.217 201.479 156.277 201.931 156.109 201.395C155.98 200.981 155.803 200.267 155.582 199.109C155.366 197.978 155.139 196.591 154.879 194.885L139.061 197.295C139.574 200.661 140.102 203.813 140.837 206.167C141.193 207.305 141.812 208.998 142.995 210.533C144.369 212.316 146.857 214.262 150.411 214.262V198.262ZM154.892 194.974L150.276 162.21L134.432 164.442L139.048 197.206L154.892 194.974ZM168.766 181.932V204.029H184.766V181.932H168.766ZM168.766 204.029C168.766 204.4 168.763 204.437 168.764 204.415C168.766 204.381 168.775 204.251 168.804 204.06C168.833 203.873 168.894 203.551 169.023 203.151C169.281 202.353 169.926 200.914 171.457 199.74C173.037 198.528 174.689 198.262 175.723 198.262V214.262C177.279 214.262 179.322 213.871 181.195 212.435C183.019 211.036 183.86 209.271 184.248 208.071C184.856 206.19 184.766 204.143 184.766 204.029H168.766ZM175.723 198.262C176.147 198.262 176.449 198.299 176.533 198.31C176.661 198.326 176.745 198.342 176.783 198.349C176.859 198.364 176.868 198.37 176.829 198.358C176.794 198.346 176.749 198.33 176.704 198.309C176.659 198.289 176.639 198.275 176.642 198.277C176.645 198.279 176.691 198.31 176.762 198.38C176.836 198.452 176.937 198.568 177.036 198.73C177.138 198.897 177.218 199.078 177.268 199.256C177.318 199.433 177.321 199.546 177.321 199.563H161.321C161.321 205.625 164.683 209.561 167.844 211.642C169.338 212.625 170.816 213.236 171.989 213.608C172.928 213.906 174.331 214.262 175.723 214.262V198.262ZM177.321 199.563V92.0909H161.321V199.563H177.321ZM177.321 92.0909C177.321 75.2994 176.832 63.6555 176.338 55.7002C176.091 51.7263 175.843 48.6924 175.661 46.4554C175.464 44.0366 175.385 42.9733 175.385 42.4564H159.385C159.385 43.8002 159.548 45.714 159.714 47.7536C159.895 49.9749 160.132 52.8807 160.369 56.6927C160.842 64.3091 161.321 75.6218 161.321 92.0909H177.321ZM175.385 42.4564C175.385 42.4598 175.385 42.4917 175.381 42.5492C175.378 42.6057 175.369 42.7009 175.35 42.8285C175.316 43.0477 175.222 43.5541 174.941 44.1992C174.664 44.8319 174.071 45.9077 172.879 46.8592C171.569 47.9057 169.937 48.4717 168.279 48.4717V32.4717C163.688 32.4717 161.184 35.7196 160.277 37.7986C159.481 39.6222 159.385 41.4061 159.385 42.4564H175.385ZM168.279 48.4717C167.891 48.4717 167.615 48.4311 167.487 48.4087C167.415 48.3961 167.364 48.3845 167.333 48.3773C167.318 48.3735 167.306 48.3705 167.299 48.3686C167.295 48.3676 167.292 48.3668 167.291 48.3663C167.289 48.3658 167.288 48.3655 167.288 48.3655C167.288 48.3655 167.289 48.3658 167.29 48.3663C167.292 48.3668 167.294 48.3675 167.297 48.3685C167.304 48.3706 167.313 48.3736 167.325 48.3778C167.35 48.3862 167.383 48.3985 167.426 48.4152C167.514 48.4493 167.628 48.4977 167.767 48.563C168.358 48.8414 169.117 49.2951 169.84 49.8631C170.581 50.4456 171.048 50.9625 171.269 51.2838C171.517 51.6437 171.165 51.3156 171.165 50.3953H187.165C187.165 46.994 185.805 44.185 184.454 42.2191C183.076 40.2145 181.352 38.5606 179.725 37.2825C178.08 35.9898 176.294 34.893 174.58 34.086C173.133 33.4054 170.792 32.4717 168.279 32.4717V48.4717ZM171.165 50.3953C171.165 57.9599 170.574 80.3711 169.976 105.61C169.381 130.718 168.782 158.491 168.782 176.474H184.782C184.782 158.716 185.375 131.141 185.971 105.989C186.564 80.9698 187.165 58.2122 187.165 50.3953H171.165ZM181.933 182.596C197.868 169.187 208.261 153.372 215.039 141.18C218.403 135.127 220.982 129.762 222.731 126.318C223.666 124.477 224.257 123.398 224.636 122.815C224.84 122.502 224.757 122.689 224.401 123.036C224.29 123.145 222.57 124.916 219.532 124.916V108.916C216.067 108.916 213.87 110.958 213.229 111.583C212.342 112.448 211.674 113.4 211.232 114.079C210.318 115.481 209.37 117.291 208.465 119.074C206.532 122.88 204.224 127.703 201.054 133.406C194.762 144.724 185.493 158.689 171.631 170.353L181.933 182.596ZM219.532 124.916C216.269 124.916 214.463 122.908 214.035 122.378C213.53 121.75 213.388 121.303 213.457 121.476C213.561 121.742 213.777 122.488 214.007 123.75C214.221 124.917 214.389 126.2 214.503 127.342C214.623 128.539 214.659 129.337 214.659 129.569H230.659C230.659 127.751 230.336 124.098 229.747 120.875C229.456 119.283 229.021 117.332 228.344 115.613C228.021 114.794 227.456 113.533 226.494 112.339C225.611 111.242 223.317 108.916 219.532 108.916V124.916ZM214.659 129.569C214.659 129.563 214.659 129.625 214.637 129.766C214.614 129.906 214.572 130.108 214.494 130.377C214.335 130.925 214.056 131.655 213.603 132.578C212.685 134.446 211.229 136.751 209.19 139.463C205.114 144.884 199.223 151.259 192.201 158.085L203.353 169.559C210.641 162.475 217.191 155.445 221.978 149.078C224.371 145.896 226.452 142.71 227.964 139.631C229.426 136.656 230.659 133.177 230.659 129.569H214.659ZM191.287 168.5L207.385 190.828L220.363 181.471L204.266 159.143L191.287 168.5ZM207.368 190.805C211.867 197.092 215.343 201.695 218.749 204.66C222.877 208.252 226.819 209.419 231.276 209.771L232.538 193.821C230.725 193.678 230.266 193.472 229.253 192.59C227.518 191.08 225.113 188.108 220.38 181.494L207.368 190.805ZM223.964 200.84C223.796 202.24 223.047 204.785 221.95 206.885C221.409 207.921 220.993 208.438 220.853 208.58C220.583 208.853 221.563 207.673 223.718 207.673V223.673C227.808 223.673 230.705 221.375 232.24 219.82C233.906 218.132 235.184 216.108 236.132 214.292C238.013 210.691 239.423 206.297 239.85 202.753L223.964 200.84ZM223.718 207.673C226.214 207.673 227.248 209.156 225.973 207.99C225.035 207.132 223.499 205.455 220.97 202.345C215.973 196.201 208.125 185.761 195.105 168.442L182.316 178.057C195.22 195.222 203.313 205.994 208.557 212.441C211.148 215.626 213.308 218.089 215.176 219.797C216.707 221.197 219.658 223.673 223.718 223.673V207.673ZM184.007 166.778L172.062 175.462L181.47 188.403L193.415 179.72L184.007 166.778ZM125.958 50.0844C124.032 45.8639 121.549 38.8272 119.121 31.9696C117.945 28.648 116.79 25.3958 115.787 22.7731C115.285 21.4625 114.789 20.2242 114.321 19.1664C113.92 18.2615 113.317 16.9648 112.554 15.8777L99.4602 25.0736C99.2427 24.7639 99.3129 24.7903 99.6898 25.6418C99.999 26.3405 100.384 27.292 100.843 28.492C101.761 30.8905 102.847 33.9429 104.039 37.3095C106.347 43.828 109.109 51.7016 111.402 56.7265L125.958 50.0844ZM112.554 15.8777C111.151 13.8803 109.063 11.5063 106.587 10.0467C105.613 9.47231 102.735 7.9114 99.1613 8.81439C94.3799 10.0226 92.8275 14.1672 92.4786 16.3908L108.285 18.871C108.211 19.3467 107.973 20.4178 107.138 21.5763C106.2 22.8789 104.779 23.8979 103.081 24.3268C101.552 24.7133 100.312 24.4948 99.6718 24.3217C99.0168 24.1445 98.6017 23.9125 98.4616 23.8299C98.153 23.648 98.6792 23.9616 99.4602 25.0736L112.554 15.8777ZM92.4708 16.4413C92.1422 18.6267 92.119 22.2911 92.649 25.9402C93.1423 29.3366 94.3658 34.6378 97.9637 38.4616L109.616 27.4972C109.683 27.5679 109.462 27.3473 109.167 26.54C108.886 25.7739 108.649 24.7814 108.483 23.6405C108.32 22.5176 108.248 21.4002 108.237 20.4537C108.231 19.985 108.241 19.5867 108.257 19.2789C108.275 18.9505 108.295 18.8053 108.293 18.8205L92.4708 16.4413ZM97.9651 38.4631C99.5002 40.0937 102.67 44.2508 105.67 48.6105C107.126 50.725 108.426 52.7206 109.362 54.2856C109.834 55.0755 110.161 55.6678 110.358 56.0613C110.681 56.7095 110.388 56.2943 110.223 55.3641L125.978 52.5714C125.697 50.9879 124.994 49.5587 124.673 48.916C124.226 48.0186 123.674 47.0431 123.093 46.0724C121.923 44.1161 120.419 41.8186 118.851 39.5398C115.804 35.113 112.05 30.0826 109.615 27.4956L97.9651 38.4631ZM123.674 59.707L124.253 59.1447L113.106 47.6663L112.527 48.2286L123.674 59.707ZM121.834 66.7425L126.516 64.4767L119.546 50.0746L114.864 52.3405L121.834 66.7425ZM130.36 54.0683C129.849 52.9014 129.166 51.5855 128.21 50.2704L115.271 59.6829C115.373 59.8233 115.518 60.0621 115.702 60.4829L130.36 54.0683ZM128.328 50.4374C127.472 49.1955 126.52 48.1134 125.521 47.167L114.519 58.7838C114.777 59.0282 114.983 59.2693 115.153 59.516L128.328 50.4374ZM114.428 47.2546L110.705 50.8932L121.889 62.3349L125.612 58.6962L114.428 47.2546ZM109.746 61.2052L111.797 64.1326L124.9 54.9504L122.849 52.0229L109.746 61.2052ZM125.386 53.08C125.236 52.3605 125.028 51.7486 124.925 51.4564C124.862 51.279 124.805 51.1279 124.761 51.0158C124.739 50.9589 124.719 50.9097 124.703 50.8696C124.695 50.8495 124.688 50.8315 124.682 50.8157C124.678 50.8079 124.675 50.8006 124.673 50.7938C124.671 50.7905 124.67 50.7872 124.669 50.7841C124.668 50.7826 124.667 50.7811 124.667 50.7796C124.666 50.7789 124.666 50.7782 124.666 50.7774C124.666 50.7771 124.665 50.7765 124.665 50.7764C124.665 50.7758 124.665 50.7753 117.273 53.8355C109.882 56.8957 109.882 56.8952 109.881 56.8947C109.881 56.8945 109.881 56.894 109.881 56.8936C109.881 56.8929 109.88 56.8923 109.88 56.8916C109.88 56.8902 109.879 56.8889 109.878 56.8876C109.877 56.885 109.876 56.8824 109.875 56.88C109.873 56.8751 109.871 56.8705 109.87 56.8663C109.866 56.8578 109.863 56.8504 109.861 56.8442C109.856 56.8319 109.852 56.8233 109.85 56.8175C109.846 56.8078 109.844 56.8013 109.841 56.7934C109.839 56.7882 109.829 56.7591 109.813 56.7073C109.801 56.6648 109.763 56.5364 109.723 56.3441L125.386 53.08ZM124.621 50.6705C122.216 45.0885 117.174 37.897 112.429 32.1387C109.991 29.1793 107.44 26.3657 105.079 24.1116C103.901 22.9872 102.685 21.92 101.488 21.0218C100.396 20.2035 98.8683 19.1779 97.1071 18.5558L91.7781 33.6423C91.2577 33.4585 91.2519 33.3452 91.8893 33.8231C92.4203 34.2212 93.14 34.8343 94.0303 35.6843C95.8054 37.3789 97.9199 39.6904 100.081 42.3131C104.535 47.7188 108.426 53.519 109.926 57.0006L124.621 50.6705ZM97.1012 18.5538C95.8914 18.1275 93.9192 17.5167 91.786 17.6008C90.6451 17.6458 88.7895 17.9113 86.9629 19.1484C84.9101 20.5387 83.7294 22.5878 83.3093 24.6366C82.6535 27.8342 83.9225 30.5706 84.3696 31.5144C85.0357 32.9207 85.9507 34.3669 86.9298 35.7652L100.036 26.588C99.2782 25.5053 98.94 24.8986 98.8296 24.6654C98.7763 24.553 98.8704 24.7225 98.9651 25.1083C99.0445 25.4323 99.2671 26.4658 98.9831 27.8509C98.6477 29.4862 97.6691 31.2216 95.935 32.3961C94.427 33.4174 93.0065 33.5651 92.4162 33.5884C91.3842 33.6291 90.9754 33.3595 91.7839 33.6444L97.1012 18.5538ZM86.9359 35.7739C87.6326 36.766 88.563 38.3258 89.8378 40.3906C90.8868 42.0898 92.3846 44.4951 93.7844 46.1036L105.854 35.6006C105.484 35.1748 104.69 33.9911 103.452 31.9855C102.44 30.3454 101.087 28.0846 100.03 26.5793L86.9359 35.7739ZM93.7634 46.0794C95.0692 47.5922 98.7903 51.0084 101.836 53.7324C103.478 55.2017 105.132 56.6531 106.495 57.8165C107.617 58.775 109.108 60.0337 110.087 60.6594L118.702 47.1769C118.879 47.2899 118.368 46.9154 116.884 45.6482C115.64 44.5861 114.082 43.2197 112.503 41.807C110.924 40.3945 109.355 38.9648 108.089 37.7777C107.454 37.1828 106.916 36.6688 106.501 36.2597C106.038 35.8042 105.869 35.6174 105.875 35.6248L93.7634 46.0794ZM110.131 60.687C111.812 61.7464 113.544 62.5554 115.135 62.953L119.015 47.4304C119.201 47.477 119.312 47.5166 119.339 47.5266C119.374 47.539 119.364 47.537 119.311 47.5131C119.205 47.4645 118.981 47.3524 118.659 47.1493L110.131 60.687ZM122.731 60.8492L123.211 60.3696L111.898 49.0545L111.419 49.5342L122.731 60.8492ZM127.597 41.1218C123.727 41.1218 118.87 42.5277 114.626 46.8242L126.009 58.0681C126.551 57.519 126.967 57.3081 127.184 57.2214C127.421 57.1267 127.572 57.1218 127.597 57.1218V41.1218ZM114.944 58.3727C115.129 58.5402 115.388 58.8211 115.727 59.2967L128.746 49.9951C127.927 48.8498 126.929 47.6422 125.691 46.5197L114.944 58.3727ZM115.683 59.2344C115.986 59.6674 116.153 59.9873 116.251 60.2285L131.068 54.1903C130.438 52.6452 129.645 51.2783 128.79 50.0573L115.683 59.2344ZM127.007 64.4755C132.46 61.9633 135.479 57.8909 136.8 54.1992L121.736 48.8077C121.74 48.796 121.694 48.926 121.522 49.1192C121.364 49.296 121.018 49.6181 120.312 49.9433L127.007 64.4755ZM135.817 46.9088L134.146 44.5271L121.048 53.7164L122.719 56.098L135.817 46.9088ZM137.117 53.2299C137.268 52.7354 137.385 52.2765 137.449 52.0277C137.533 51.7024 137.54 51.6848 137.529 51.7194L122.297 46.8219C122.137 47.3196 122.012 47.8146 121.955 48.0352C121.879 48.3321 121.847 48.4521 121.816 48.5531L137.117 53.2299ZM130.179 41.2751C130.181 41.2751 130.173 41.2749 130.155 41.2739C130.136 41.2729 130.11 41.2713 130.074 41.2688C129.996 41.2635 129.904 41.2563 129.764 41.245C129.515 41.2248 129.095 41.1896 128.646 41.1659L127.805 57.1438C127.984 57.1532 128.161 57.1676 128.474 57.1929C128.733 57.2139 129.181 57.2507 129.647 57.2662L130.179 41.2751ZM121.716 53.8057L122.957 55.5423L135.976 46.2406L134.735 44.504L121.716 53.8057ZM121.622 52.71C124.166 56.3716 129.742 58.3564 134.428 55.1359L125.365 41.95C128.992 39.4571 133.046 41.1111 134.763 43.5819L121.622 52.71ZM134.565 55.0397C137 53.2895 138.295 50.5562 138.275 47.7531C138.257 45.3639 137.314 43.5199 136.574 42.4258L123.318 51.3853C122.992 50.9031 122.288 49.6875 122.275 47.869C122.259 45.6365 123.322 43.4159 125.228 42.0461L134.565 55.0397ZM136.455 42.2547C135.686 41.1779 134.3 39.6782 132.111 38.8299C129.525 37.8279 126.369 38.0064 123.739 39.896L133.076 52.8895C132.171 53.5395 131.015 54.0376 129.685 54.1834C128.378 54.3266 127.224 54.0956 126.33 53.7489C124.674 53.1074 123.793 52.0542 123.437 51.5563L136.455 42.2547ZM123.834 39.8289C118.943 43.2372 119.225 49.2596 121.622 52.71L134.763 43.5819C136.332 45.8415 136.781 50.3092 132.981 52.9566L123.834 39.8289ZM136.947 46.7078C138.617 49.1125 138.832 53.4485 135.26 56.0154L125.923 43.0219C121.292 46.3497 121.308 52.2403 123.806 55.8359L136.947 46.7078ZM135.123 56.1116C133.068 57.524 130.568 57.6612 128.564 56.9005C126.91 56.2722 126.008 55.2239 125.621 54.6822L138.639 45.3806C137.838 44.26 136.432 42.7734 134.244 41.9425C131.707 40.9792 128.644 41.1495 126.06 42.9257L135.123 56.1116ZM125.56 54.5954C125.208 54.0895 124.508 52.893 124.469 51.1027C124.448 50.1379 124.626 48.9755 125.204 47.7995C125.792 46.6038 126.65 45.6887 127.566 45.0593L136.628 58.2452C139.277 56.4246 140.526 53.5329 140.465 50.7546C140.414 48.3937 139.465 46.5687 138.7 45.4673L125.56 54.5954ZM127.392 45.1817C131.138 42.4582 135.295 44.3308 136.947 46.7078L123.806 55.8359C126.284 59.4038 131.963 61.6403 136.801 58.1228L127.392 45.1817ZM116.583 64.1264C120.519 67.989 126.97 73.2723 132.308 77.67C135.065 79.9405 137.563 82.0047 139.505 83.6877C140.477 84.5298 141.241 85.2179 141.794 85.7483C142.466 86.3935 142.472 86.4729 142.26 86.1698L155.353 76.974C154.594 75.8936 153.586 74.8886 152.872 74.2035C152.038 73.4037 151.044 72.5157 149.984 71.5968C147.863 69.7579 145.201 67.5612 142.482 65.3206C136.868 60.696 131.101 55.9565 127.791 52.7073L116.583 64.1264ZM142.26 86.1698C143.03 87.2668 143.143 87.8648 143.077 87.5104C143.047 87.3507 142.972 86.8833 143.029 86.2101C143.084 85.5534 143.3 84.3166 144.183 83.0118C145.163 81.5622 146.608 80.5671 148.165 80.1269C149.549 79.7354 150.647 79.8819 151.126 79.977L148.009 95.6705C150.232 96.112 154.668 96.0682 157.436 91.9751C159.496 88.9301 159.014 85.7003 158.808 84.5894C158.283 81.7624 156.766 78.9863 155.353 76.974L142.26 86.1698ZM151.176 79.9871C151.184 79.9888 151.036 79.9568 150.72 79.8602C150.424 79.7694 150.045 79.6417 149.605 79.476C148.718 79.1415 147.692 78.6921 146.691 78.1551C145.674 77.6096 144.821 77.0466 144.194 76.5195C143.534 75.9649 143.395 75.6774 143.434 75.7543L129.164 82.99C131.538 87.6726 136.099 90.6294 139.126 92.2536C142.378 93.9989 145.818 95.2209 147.959 95.6604L151.176 79.9871ZM143.44 75.7663C141.837 72.5914 138.387 67.3464 135.266 62.9749C133.659 60.7244 132.014 58.5289 130.577 56.7637C129.864 55.8879 129.138 55.0379 128.45 54.3125C127.959 53.7946 126.858 52.6469 125.47 51.8425L117.448 65.6858C116.631 65.2122 116.34 64.7948 116.84 65.3219C117.143 65.6415 117.588 66.1513 118.169 66.865C119.32 68.2791 120.753 70.1822 122.244 72.2712C125.319 76.5787 128.147 80.9761 129.158 82.9781L143.44 75.7663ZM124.904 65.9843L125.632 65.637L118.742 51.1967L118.014 51.544L124.904 65.9843ZM116.129 65.6857C116.055 65.6365 116.058 65.6342 116.138 65.6972C116.165 65.7179 116.187 65.7358 116.2 65.7462C116.206 65.751 116.208 65.7533 116.207 65.7522C116.206 65.7516 116.205 65.7501 116.202 65.7477C116.2 65.7464 116.198 65.7449 116.196 65.7432C116.195 65.7423 116.194 65.7414 116.193 65.7404C116.192 65.7399 116.192 65.7393 116.191 65.7388C116.191 65.7385 116.19 65.7383 116.19 65.738C116.19 65.7378 116.19 65.7376 116.189 65.7376C116.189 65.7373 116.189 65.7371 121.31 59.5911C126.431 53.4451 126.431 53.4449 126.431 53.4447C126.431 53.4446 126.43 53.4444 126.43 53.4442C126.43 53.4439 126.43 53.4436 126.429 53.4433C126.428 53.4427 126.428 53.4421 126.427 53.4414C126.425 53.4401 126.424 53.4387 126.422 53.4372C126.418 53.4341 126.414 53.4308 126.41 53.4271C126.401 53.4196 126.39 53.4108 126.378 53.4008C126.353 53.3807 126.322 53.3552 126.286 53.3255C126.213 53.2666 126.114 53.1873 125.998 53.0964C125.793 52.9361 125.424 52.6526 125.002 52.3718L116.129 65.6857ZM115.824 65.4136C118.594 68.0238 122.721 73.6631 126.28 79.6884C128.007 82.6127 129.457 85.3866 130.443 87.6315C130.937 88.7575 131.267 89.6423 131.46 90.2765C131.69 91.0371 131.586 90.9942 131.592 90.4444L147.591 90.5949C147.609 88.7261 147.167 86.9393 146.771 85.6315C146.336 84.1973 145.747 82.6893 145.093 81.1981C143.78 78.2089 142.006 74.8518 140.056 71.5512C136.261 65.1265 131.223 57.9396 126.796 53.7687L115.824 65.4136ZM131.592 90.4579C131.585 91.3139 131.47 90.838 131.859 89.8809C132.082 89.3337 132.704 88.0486 134.176 86.9779C135.87 85.7466 137.836 85.4157 139.49 85.6571C140.891 85.8617 141.788 86.424 142.067 86.61C142.398 86.8313 142.526 86.9784 142.44 86.8907C142.26 86.7089 141.806 86.1853 141.049 85.1041L127.942 94.2813C128.923 95.681 129.97 97.0367 131.066 98.1444C131.802 98.8881 133.944 101.017 137.178 101.489C139.25 101.792 141.579 101.377 143.585 99.9196C145.369 98.6225 146.25 96.9679 146.68 95.9099C147.485 93.9309 147.581 91.8672 147.591 90.5814L131.592 90.4579ZM141.043 85.0954C139.99 83.5963 138.331 81.5601 137.132 80.0452C135.671 78.2015 134.816 77.0372 134.528 76.524L120.566 84.3374C121.602 86.1892 123.344 88.4072 124.589 89.9789C126.094 91.8794 127.248 93.2916 127.949 94.29L141.043 85.0954ZM134.538 76.5405C134.54 76.5438 134.42 76.3164 134.15 75.726C133.907 75.1949 133.608 74.5134 133.265 73.7139C132.581 72.1182 131.771 70.1559 130.982 68.1903C130.193 66.2235 129.44 64.2947 128.869 62.7654C128.178 60.9173 128.023 60.3538 128.077 60.608L112.426 63.933C112.679 65.1217 113.371 67.0019 113.881 68.3671C114.511 70.0511 115.313 72.1051 116.134 74.1512C117.661 77.9553 119.598 82.5979 120.557 84.3208L134.538 76.5405ZM128.078 60.6127C127.996 60.2268 127.966 59.9661 127.955 59.8361C127.95 59.7717 127.951 59.751 127.951 59.7729C127.951 59.7896 127.951 59.8802 127.937 60.0344L112.003 58.5854C111.863 60.1286 112.009 61.965 112.425 63.9283L128.078 60.6127ZM123.385 66.5443L123.981 66.2631L117.15 51.7944L116.555 52.0756L123.385 66.5443ZM124.31 55.124L122.507 52.5438L109.393 61.7097L111.196 64.2898L124.31 55.124ZM108.379 54.541C108.507 54.1659 108.642 53.8683 108.742 53.6652C108.845 53.4564 108.94 53.2889 109.011 53.1695C109.149 52.9385 109.264 52.7795 109.314 52.7111C109.413 52.5782 109.453 52.5393 109.381 52.6203C109.247 52.7707 108.989 53.0385 108.624 53.3903C108.275 53.7274 107.9 54.0717 107.569 54.3625C107.405 54.5069 107.265 54.6265 107.155 54.7174C107.036 54.8162 106.993 54.8479 107.014 54.8322L116.58 67.6579C117.501 66.9714 118.762 65.8415 119.731 64.9071C120.245 64.4113 120.815 63.8376 121.319 63.2738C121.565 62.9976 121.877 62.6333 122.181 62.2219C122.346 61.9986 123.065 61.0445 123.52 59.7126L108.379 54.541ZM105.259 65.8551L105.97 66.864L119.047 57.6439L118.335 56.635L105.259 65.8551ZM112.509 54.254C113.313 54.2946 117.829 56.2792 120.109 59.7576C120.201 64.4503 116.928 68.9222 116.156 69.374C115.87 69.5136 115.429 69.7017 115.28 69.7587C115.189 69.7915 115.037 69.8437 114.977 69.8636C114.861 69.9013 114.769 69.9279 114.735 69.9378C114.691 69.9507 114.655 69.9606 114.634 69.9662C114.594 69.9775 114.562 69.9858 114.55 69.9889C114.536 69.9928 114.524 69.9957 114.52 69.9969C114.511 69.9991 114.499 70.0022 114.528 69.9948C114.566 69.9851 114.629 69.9689 114.711 69.9475C114.872 69.905 115.095 69.8445 115.364 69.7665C115.891 69.6133 116.633 69.3814 117.457 69.0691C118.26 68.7648 119.28 68.3325 120.308 67.7498C121.252 67.2156 122.696 66.2829 123.919 64.8045L111.587 54.6094C112.14 53.9413 112.592 53.7323 112.424 53.8276C112.341 53.8744 112.13 53.9776 111.787 54.1074C111.466 54.2293 111.146 54.3302 110.902 54.4013C110.784 54.4355 110.693 54.46 110.638 54.4745C110.611 54.4816 110.59 54.4869 110.572 54.4915C110.569 54.4922 110.567 54.4929 110.564 54.4937C110.561 54.4944 110.557 54.4954 110.553 54.4963C110.548 54.4977 110.533 54.5014 110.517 54.5056C110.515 54.5062 110.457 54.5212 110.387 54.5403C110.385 54.5408 110.23 54.5827 110.041 54.644C109.98 54.6639 109.829 54.7162 109.738 54.7491C109.588 54.8061 109.148 54.9942 108.861 55.1338C108.089 55.5856 104.816 60.0576 104.908 64.7503C107.189 68.2287 111.704 70.2134 112.509 70.254V54.254ZM106.292 57.0602C106.677 56.659 107.007 56.4081 107.025 56.3941C107.109 56.3285 107.155 56.2967 107.133 56.3122C107.091 56.3419 106.983 56.4159 106.775 56.5529C106.312 56.858 105.879 57.1335 105.177 57.5924C104.565 57.9917 103.846 58.4684 103.192 58.9336C102.865 59.1668 102.5 59.4349 102.146 59.7187C101.837 59.9649 101.321 60.392 100.814 60.9366L112.523 71.841C112.239 72.1457 112.047 72.2875 112.136 72.2165C112.178 72.1829 112.284 72.1018 112.473 71.9673C112.852 71.6969 113.35 71.3643 113.926 70.9883C114.41 70.6719 115.134 70.2062 115.58 69.9123C115.826 69.7498 116.111 69.5598 116.373 69.3745C116.503 69.2825 116.679 69.1556 116.867 69.0087C116.989 68.9135 117.397 68.5952 117.832 68.1423L106.292 57.0602ZM113.192 61.7582L112.464 60.7327L99.4171 69.994L100.145 71.0194L113.192 61.7582ZM111.748 70.8661C111.466 71.1629 111.278 71.2997 111.372 71.2254C111.419 71.1887 111.529 71.1052 111.722 70.9689C112.11 70.6948 112.615 70.3597 113.199 69.9788C113.72 69.6389 114.395 69.2047 114.885 68.8787C115.138 68.7108 115.437 68.5088 115.717 68.3066C115.855 68.2064 116.048 68.064 116.255 67.8959C116.388 67.7883 116.848 67.4169 117.325 66.8773L105.343 56.2744C105.773 55.7885 106.156 55.4864 106.186 55.4619C106.244 55.415 106.287 55.3821 106.308 55.3659C106.32 55.357 106.329 55.3505 106.334 55.3465C106.34 55.3425 106.342 55.3404 106.343 55.3402C106.343 55.3401 106.341 55.3415 106.337 55.3444C106.333 55.3474 106.327 55.3516 106.319 55.3572C106.303 55.3685 106.281 55.3836 106.252 55.4031C106.195 55.4426 106.121 55.4925 106.028 55.5543C105.611 55.8315 105.128 56.1405 104.46 56.5759C103.856 56.9703 103.139 57.4425 102.492 57.8997C102.167 58.1291 101.806 58.3923 101.455 58.6697C101.151 58.9096 100.638 59.3281 100.134 59.8606L111.748 70.8661ZM104.811 66.2069L105.539 67.2323L118.585 57.9702L117.857 56.9448L104.811 66.2069ZM100.335 61.2692C100.753 60.8154 101.12 60.5327 101.141 60.5159C101.236 60.4403 101.292 60.4014 101.275 60.4138C101.242 60.4368 101.142 60.506 100.937 60.6416C100.494 60.9336 100.037 61.2252 99.3483 61.6741C98.738 62.072 98.0166 62.5486 97.3623 63.0133C97.0342 63.2463 96.6687 63.5146 96.3126 63.7987C96.004 64.0448 95.4845 64.4738 94.9742 65.0218L106.683 75.9262C106.396 76.2344 106.201 76.378 106.29 76.3069C106.331 76.2737 106.437 76.1927 106.627 76.058C107.008 75.7872 107.508 75.4544 108.087 75.0771C108.587 74.7507 109.287 74.3012 109.752 73.9941C110 73.8302 110.291 73.6355 110.561 73.4435C110.694 73.3484 110.878 73.2143 111.076 73.0574C111.2 72.9594 111.643 72.6094 112.109 72.1038L100.335 61.2692ZM107.352 65.843L106.624 64.8176L93.5773 74.0796L94.3053 75.105L107.352 65.843ZM105.955 74.9008C105.668 75.2089 105.473 75.3526 105.562 75.2815C105.604 75.2482 105.709 75.1673 105.899 75.0326C106.28 74.7618 106.78 74.429 107.359 74.0516C107.86 73.7252 108.559 73.2757 109.024 72.9686C109.272 72.8047 109.563 72.61 109.833 72.418C109.966 72.3229 110.15 72.1888 110.348 72.0319C110.472 71.9339 110.915 71.5839 111.381 71.0784L99.6073 60.2438C100.025 59.7899 100.392 59.5072 100.413 59.4905C100.508 59.4149 100.564 59.376 100.547 59.3884C100.514 59.4113 100.414 59.4806 100.209 59.6162C99.7664 59.9082 99.3088 60.1998 98.6203 60.6487C98.01 61.0467 97.2886 61.5232 96.6343 61.9879C96.3062 62.2209 95.9407 62.4893 95.5846 62.7733C95.276 63.0195 94.7566 63.4484 94.2462 63.9964L105.955 74.9008ZM98.9705 70.2919L99.6985 71.3174L112.745 62.0557L112.017 61.0302L98.9705 70.2919ZM94.4952 65.3544C94.913 64.9005 95.2797 64.6178 95.3011 64.6008C95.3967 64.5251 95.4527 64.4861 95.4356 64.4983C95.4039 64.5209 95.3039 64.5898 95.0993 64.7248C94.6661 65.0105 94.1948 65.3109 93.5165 65.7519C92.9083 66.1474 92.1909 66.6196 91.5418 67.0777C91.2163 67.3074 90.8548 67.5708 90.5032 67.8485C90.199 68.0887 89.6864 68.5073 89.1817 69.0399L100.795 80.0455C100.514 80.3423 100.326 80.4793 100.419 80.4053C100.465 80.3689 100.575 80.2858 100.767 80.1501C101.154 79.8774 101.658 79.5433 102.239 79.1655C102.749 78.8334 103.435 78.3936 103.909 78.0808C104.158 77.9165 104.45 77.7216 104.72 77.5293C104.853 77.4341 105.038 77.2999 105.236 77.1429C105.36 77.0447 105.803 76.6947 106.269 76.189L94.4952 65.3544ZM101.512 69.9118L100.784 68.8864L87.7371 78.148L88.4651 79.1735L101.512 69.9118ZM100.067 79.02C99.7897 79.3131 99.6048 79.4476 99.7 79.3722C99.748 79.3342 99.8594 79.2497 100.053 79.1128C100.441 78.8377 100.946 78.501 101.527 78.1212C102.039 77.7864 102.723 77.3452 103.197 77.0309C103.446 76.866 103.736 76.6709 104.005 76.4788C104.138 76.3837 104.32 76.25 104.517 76.0939C104.64 75.9963 105.079 75.6484 105.541 75.147L93.7673 64.3124C94.1811 63.8627 94.5439 63.5823 94.5641 63.5662C94.658 63.4916 94.7125 63.4535 94.6947 63.4662C94.6616 63.4899 94.5604 63.56 94.3555 63.6959C93.9221 63.9832 93.4493 64.2862 92.7722 64.7288C92.1642 65.1263 91.4483 65.6 90.8008 66.0589C90.4762 66.2889 90.1162 66.5523 89.7664 66.8293C89.4638 67.069 88.9548 67.4857 88.4538 68.0144L100.067 79.02ZM93.0958 74.3113L93.8238 75.3533L106.94 66.1902L106.212 65.1482L93.0958 74.3113ZM88.6718 69.4396C89.0894 68.9858 89.4561 68.7031 89.4773 68.6863C89.5727 68.6107 89.6285 68.5719 89.6111 68.5842C89.5789 68.6072 89.4785 68.6765 89.2731 68.8121C88.8308 69.104 88.3733 69.3957 87.6848 69.8446C87.0745 70.2425 86.353 70.7191 85.6988 71.1838C85.3707 71.4168 85.0052 71.6851 84.649 71.9692C84.3405 72.2153 83.821 72.6443 83.3107 73.1923L95.0194 84.0967C94.7324 84.4048 94.5371 84.5485 94.6263 84.4774C94.668 84.4441 94.7738 84.3632 94.9635 84.2285C95.3448 83.9576 95.8445 83.6248 96.4233 83.2475C96.924 82.9211 97.6234 82.4716 98.0885 82.1645C98.3368 82.0006 98.6277 81.8058 98.897 81.6139C99.0305 81.5188 99.2146 81.3847 99.4126 81.2278C99.5364 81.1298 99.9798 80.7798 100.445 80.2742L88.6718 69.4396ZM95.6885 74.0136L94.9605 72.9882L81.9136 82.2499L82.6416 83.2753L95.6885 74.0136ZM94.2439 83.1218C93.9627 83.4186 93.7743 83.5554 93.8684 83.4811C93.915 83.4443 94.0252 83.3609 94.2182 83.2246C94.6064 82.9505 95.1112 82.6153 95.6954 82.2344C96.2168 81.8945 96.8913 81.4603 97.3817 81.1344C97.6343 80.9664 97.9335 80.7644 98.2132 80.5622C98.3518 80.462 98.5443 80.3196 98.7518 80.1515C98.8847 80.0439 99.3442 79.6726 99.8217 79.1329L87.8393 68.53C88.2692 68.0441 88.652 67.742 88.6823 67.7175C88.7402 67.6706 88.7832 67.6377 88.8046 67.6215C88.8164 67.6126 88.8252 67.6061 88.8305 67.6021C88.8359 67.5981 88.8389 67.596 88.8391 67.5959C88.8393 67.5957 88.8374 67.5971 88.8332 67.6C88.829 67.603 88.8231 67.6072 88.8151 67.6128C88.799 67.6241 88.7771 67.6393 88.7487 67.6587C88.691 67.6982 88.617 67.7481 88.524 67.8099C88.1071 68.0871 87.6246 68.3962 86.9568 68.8315C86.3519 69.2259 85.6355 69.6981 84.9882 70.1553C84.6634 70.3847 84.3023 70.648 83.9511 70.9254C83.6474 71.1652 83.1349 71.5838 82.6303 72.1162L94.2439 83.1218ZM87.307 78.4623L88.035 79.4878L101.082 70.2261L100.354 69.2006L87.307 78.4623ZM82.8317 73.5248C83.2494 73.071 83.6161 72.7883 83.6372 72.7715C83.7326 72.6959 83.7884 72.6571 83.771 72.6694C83.7388 72.6924 83.6384 72.7617 83.433 72.8973C82.9908 73.1892 82.5332 73.4809 81.8447 73.9298C81.2344 74.3277 80.5129 74.8043 79.8587 75.269C79.5306 75.502 79.1651 75.7703 78.809 76.0544C78.5004 76.3005 77.981 76.7295 77.4706 77.2775L89.1794 88.1819C88.8924 88.49 88.6971 88.6337 88.7863 88.5625C88.8279 88.5293 88.9338 88.4484 89.1235 88.3137C89.5048 88.0428 90.0045 87.71 90.5833 87.3327C91.0839 87.0063 91.7834 86.5568 92.2485 86.2497C92.4968 86.0858 92.7876 85.891 93.057 85.6991C93.1904 85.604 93.3746 85.4699 93.5726 85.313C93.6963 85.215 94.1398 84.865 94.605 84.3594L82.8317 73.5248ZM89.8485 78.0988L89.1205 77.0734L76.0736 86.3351L76.8016 87.3605L89.8485 78.0988ZM88.4039 87.207C88.1262 87.5 87.9414 87.6345 88.0365 87.5592C88.0845 87.5212 88.1959 87.4367 88.3891 87.2998C88.7772 87.0247 89.2824 86.688 89.8635 86.3081C90.3755 85.9734 91.0598 85.5321 91.5338 85.2178C91.7825 85.0529 92.0726 84.8578 92.3411 84.6657C92.474 84.5706 92.6569 84.4369 92.8534 84.2808C92.9762 84.1832 93.4157 83.8353 93.8771 83.334L82.1037 72.4994C82.5176 72.0497 82.8803 71.7693 82.9005 71.7532C82.9944 71.6786 83.0489 71.6405 83.0311 71.6532C82.9979 71.677 82.8968 71.747 82.6919 71.8829C82.2585 72.1702 81.7857 72.4732 81.1086 72.9159C80.5006 73.3134 79.7847 73.7871 79.1373 74.2459C78.8126 74.476 78.4527 74.7393 78.1029 75.0164C77.8003 75.256 77.2913 75.6727 76.7902 76.2014L88.4039 87.207ZM81.467 82.5475L82.1949 83.573L95.2418 74.3113L94.5139 73.2858L81.467 82.5475ZM76.9917 77.61C77.4055 77.1604 77.7682 76.8799 77.7884 76.8639C77.8823 76.7893 77.9368 76.7511 77.919 76.7639C77.8859 76.7876 77.7847 76.8577 77.5798 76.9935C77.1464 77.2809 76.6736 77.5839 75.9965 78.0265C75.3885 78.424 74.6726 78.8977 74.0252 79.3565C73.7005 79.5866 73.3406 79.85 72.9908 80.127C72.6882 80.3667 72.1791 80.7834 71.6781 81.3121L83.2918 92.3177C83.0141 92.6107 82.8293 92.7452 82.9244 92.6698C82.9724 92.6319 83.0838 92.5474 83.2769 92.4105C83.6651 92.1354 84.1703 91.7986 84.7514 91.4188C85.2634 91.084 85.9477 90.6428 86.4217 90.3285C86.6704 90.1635 86.9605 89.9685 87.229 89.7764C87.3619 89.6812 87.5448 89.5476 87.7413 89.3914C87.8641 89.2939 88.3036 88.946 88.765 88.4446L76.9917 77.61ZM84.0084 82.184L83.2804 81.1586L70.2336 90.4203L70.9615 91.4457L84.0084 82.184ZM82.5638 91.2922C82.2826 91.589 82.0942 91.7258 82.1883 91.6515C82.2349 91.6147 82.3452 91.5313 82.5381 91.395C82.9263 91.1209 83.4311 90.7857 84.0153 90.4048C84.5367 90.0649 85.2113 89.6308 85.7016 89.3048C85.9542 89.1369 86.2534 88.9348 86.5331 88.7326C86.6717 88.6324 86.8642 88.49 87.0717 88.322C87.2046 88.2143 87.6641 87.843 88.1416 87.3033L76.1592 76.7004C76.5891 76.2146 76.9719 75.9125 77.0022 75.8879C77.0601 75.841 77.1031 75.8081 77.1245 75.7919C77.1363 75.783 77.1451 75.7765 77.1504 75.7725C77.1559 75.7685 77.1588 75.7664 77.159 75.7663C77.1592 75.7661 77.1573 75.7675 77.1531 75.7705C77.1489 75.7734 77.143 75.7776 77.135 75.7832C77.1189 75.7945 77.097 75.8097 77.0686 75.8291C77.0109 75.8686 76.9369 75.9185 76.8439 75.9803C76.427 76.2575 75.9445 76.5666 75.2768 77.0019C74.6718 77.3963 73.9555 77.8685 73.3081 78.3257C72.9833 78.5551 72.6222 78.8184 72.271 79.0958C71.9673 79.3356 71.4548 79.7542 70.9502 80.2866L82.5638 91.2922ZM75.627 86.6327L76.3549 87.6582L89.4018 78.3965L88.6738 77.3711L75.627 86.6327ZM71.1517 81.7118C71.2704 81.5827 71.3629 81.4917 71.3944 81.4609C71.4351 81.421 71.4623 81.3956 71.4692 81.3892C71.4823 81.377 71.47 81.3887 71.4229 81.4304C71.3311 81.5117 71.1828 81.6401 70.9843 81.8076C70.589 82.1412 70.0782 82.5597 69.5714 82.9575C69.0385 83.3759 68.6256 83.6803 68.3914 83.8379C68.2484 83.9343 68.3462 83.8577 68.6011 83.727C68.711 83.6706 69.0995 83.4733 69.6638 83.2976C69.9519 83.2079 70.4586 83.0687 71.1128 82.9986C71.7155 82.934 72.8876 82.8769 74.2802 83.309L69.5391 98.5904C72.0538 99.3706 74.1415 98.661 74.4204 98.5742C75.1001 98.3625 75.6299 98.1037 75.9032 97.9635C76.4849 97.6652 76.9978 97.332 77.3283 97.1094C78.0414 96.6293 78.8093 96.0467 79.451 95.543C80.1189 95.0187 80.7765 94.48 81.3035 94.0352C81.6063 93.7797 82.4078 93.1083 82.925 92.5464L71.1517 81.7118ZM74.2802 83.309C73.5193 83.0729 72.5967 82.9377 72.9493 82.9994C72.96 83.0013 74.2003 83.1742 75.5259 84.0047C77.0971 84.9889 78.001 86.3462 78.459 87.4598C78.8386 88.3827 78.8954 89.0892 78.9034 89.1813L62.9636 90.5678C63.0415 91.4627 63.3918 95.2835 67.0319 97.5638C68.5292 98.5018 69.9649 98.7203 70.1881 98.7594C70.7531 98.8584 70.0601 98.7521 69.5391 98.5904L74.2802 83.309ZM78.9034 89.1813C79.0323 90.6633 78.7058 91.8704 78.386 92.6581C78.0721 93.4312 77.6967 93.9741 77.4662 94.2743C77.2242 94.5895 77.0132 94.8028 76.898 94.9132C76.7761 95.0301 76.6893 95.1004 76.6599 95.1238C76.631 95.1468 76.8332 94.9963 77.4115 94.6667C77.9436 94.3634 78.4678 94.0896 79.0789 93.7632C79.3399 93.6238 79.6883 93.4366 80.0049 93.2524C80.161 93.1616 80.403 93.0175 80.6672 92.8399C80.8014 92.7496 80.9965 92.6138 81.2181 92.4398C81.4098 92.2893 81.7948 91.9759 82.2135 91.5209L70.4402 80.6863C70.8351 80.2572 71.1872 79.9732 71.3372 79.8554C71.5171 79.7141 71.662 79.6143 71.7378 79.5633C71.8204 79.5078 71.8819 79.4694 71.9111 79.4515C71.9274 79.4414 71.9396 79.4341 71.947 79.4297C71.9544 79.4252 71.9585 79.4229 71.9587 79.4227C71.959 79.4226 71.9565 79.4241 71.9508 79.4273C71.9451 79.4305 71.9371 79.4351 71.9264 79.4411C71.9047 79.4533 71.8756 79.4694 71.8376 79.4902C71.76 79.5327 71.6635 79.5846 71.5405 79.6504C71.0892 79.8915 70.2702 80.3206 69.4891 80.7657C68.7542 81.1846 67.6732 81.8279 66.7018 82.6004C66.2346 82.9718 65.4744 83.6201 64.7762 84.5294C64.2261 85.2457 62.6904 87.4268 62.9636 90.5678L78.9034 89.1813ZM69.7539 90.6638L70.4653 91.6893L83.6113 82.5689L82.8999 81.5434L69.7539 90.6638Z" fill="currentColor" mask="url(#path-1-outside-1_5_51)"/>
</svg>
